<svg width="20" height="20" viewBox="0 0 20 20" fill="none" xmlns="http://www.w3.org/2000/svg">
<path d="M18.0606 15.6988L18.0582 15.7057L18.0581 15.7056C17.8559 16.2446 17.537 16.732 17.1242 17.133C16.724 17.5475 16.2339 17.8646 15.6917 18.0596C15.0415 18.3014 14.3555 18.4333 13.6619 18.4499L13.65 18.4501V18.45C13.297 18.45 13.0404 18.4571 12.7156 18.4661C12.6156 18.4689 12.5091 18.4719 12.3914 18.4748C11.8932 18.4875 11.2089 18.5 9.99 18.5H9.97579H9.96162H9.94751H9.93344H9.91942H9.90545H9.89153H9.87766H9.86383H9.85006H9.83633H9.82265H9.80901H9.79543H9.78189H9.7684H9.75496H9.74156H9.72821H9.71491H9.70165H9.68844H9.67528H9.66216H9.64909H9.63607H9.62309H9.61016H9.59727H9.58443H9.57163H9.55888H9.54618H9.53352H9.5209H9.50833H9.49581H9.48333H9.47089H9.4585H9.44615H9.43384H9.42158H9.40937H9.39719H9.38507H9.37298H9.36094H9.34894H9.33698H9.32507H9.3132H9.30137H9.28958H9.27784H9.26614H9.25448H9.24287H9.23129H9.21976H9.20827H9.19682H9.18541H9.17404H9.16272H9.15143H9.14019H9.12899H9.11782H9.1067H9.09562H9.08458H9.07358H9.06262H9.0517H9.04082H9.02998H9.01917H9.00841H8.99769H8.987H8.97636H8.96575H8.95519H8.94466H8.93417H8.92372H8.9133H8.90293H8.89259H8.88229H8.87203H8.86181H8.85162H8.84147H8.83136H8.82129H8.81125H8.80125H8.79128H8.78136H8.77147H8.76161H8.75179H8.74201H8.73227H8.72256H8.71288H8.70324H8.69364H8.68407H8.67454H8.66504H8.65558H8.64615H8.63676H8.6274H8.61808H8.60879H8.59954H8.59032H8.58113H8.57198H8.56286H8.55377H8.54472H8.5357H8.52672H8.51777H8.50885H8.49996H8.49111H8.48229H8.4735H8.46474H8.45602H8.44733H8.43867H8.43004H8.42145H8.41288H8.40435H8.39585H8.38738H8.37894H8.37053H8.36215H8.35381H8.34549H8.33721H8.32895H8.32073H8.31253H8.30437H8.29623H8.28813H8.28005H8.27201H8.26399H8.256H8.24804H8.24012H8.23222H8.22434H8.2165H8.20869H8.2009H8.19314H8.18541H8.17771H8.17004H8.16239H8.15477H8.14718H8.13962H8.13208H8.12457H8.11709H8.10963H8.10221H8.0948H8.08743H8.08008H8.07275H8.06546H8.05819H8.05094H8.04372H8.03653H8.02936H8.02222H8.0151H8.008H8.00094H7.99389H7.98688H7.97988H7.97291H7.96597H7.95905H7.95215H7.94528H7.93843H7.9316H7.9248H7.91802H7.91127H7.90454H7.89783H7.89114H7.88448H7.87784H7.87122H7.86463H7.85806H7.8515H7.84498H7.83847H7.83198H7.82552H7.81908H7.81266H7.80626H7.79989H7.79353H7.78719H7.78088H7.77459H7.76831H7.76206H7.75583H7.74961H7.74342H7.73725H7.7311H7.72496H7.71885H7.71276H7.70668H7.70063H7.69459H7.68857H7.68258H7.6766H7.67063H7.66469H7.65877H7.65286H7.64697H7.6411H7.63525H7.62942H7.6236H7.6178H7.61202H7.60625H7.6005H7.59477H7.58906H7.58336H7.57768H7.57201H7.56636H7.56073H7.55511H7.54951H7.54393H7.53836H7.53281H7.52727H7.52175H7.51624H7.51075H7.50527H7.4998H7.49436H7.48892H7.4835H7.4781H7.47271H7.46733H7.46197H7.45662H7.45128H7.44596H7.44065H7.43536H7.43008H7.42481H7.41955H7.41431H7.40908H7.40386H7.39865H7.39346H7.38828H7.38311H7.37795H7.37281H7.36767H7.36255H7.35744H7.35234H7.34725H7.34217H7.33711H7.33205H7.327H7.32197H7.31695H7.31193H7.30693H7.30193H7.29695H7.29198H7.28701H7.28206H7.27711H7.27217H7.26725H7.26233H7.25742H7.25252H7.24763H7.24274H7.23787H7.233H7.22814H7.22329H7.21845H7.21361H7.20879H7.20397H7.19915H7.19435H7.18955H7.18476H7.17997H7.1752H7.17043H7.16566H7.1609H7.15615H7.15141H7.14667H7.14193H7.1372H7.13248H7.12776H7.12305H7.11835H7.11365H7.10895H7.10426H7.09957H7.09489H7.09021H7.08554H7.08087H7.0762H7.07154H7.06689H7.06223H7.05758H7.05294H7.0483H7.04366H7.03902H7.03439H7.02976H7.02513H7.0205H7.01588H7.01126H7.00664H7.00202H6.99741H6.9928H6.98819H6.98358H6.97897H6.97436H6.96976H6.96516H6.96055H6.95595H6.95135H6.94675H6.94215H6.93755H6.93295H6.92835H6.92375H6.91915H6.91455H6.90995H6.90535H6.90075H6.89615H6.89154H6.88694H6.88233H6.87773H6.87312H6.86851H6.8639H6.85928H6.85467H6.85005H6.84543H6.84081H6.83619H6.83156H6.82693H6.8223H6.81766H6.81303H6.80838H6.80374H6.79909H6.79444H6.78979H6.78513H6.78046H6.7758H6.77113H6.76645H6.76177H6.75709H6.7524H6.7477H6.743H6.7383H6.73359H6.72888H6.72416H6.71943H6.7147H6.70996H6.70522H6.70047H6.69572H6.69096H6.68619H6.68141H6.67663H6.67185H6.66705H6.66225H6.65744H6.65262H6.6478H6.64297H6.63813H6.63328H6.62843H6.62356H6.61869H6.61381H6.60893H6.60403H6.59912H6.59421H6.58929H6.58436H6.57941H6.57446H6.5695H6.56454H6.55956H6.55457H6.54957H6.54456H6.53954H6.53451H6.52947H6.52442H6.51936H6.51429H6.5092H6.50411H6.499H6.49389H6.48876H6.48362H6.47847H6.4733H6.46813H6.46294H6.45774H6.45253H6.4473H6.44207H6.43682H6.43155H6.42628H6.42099H6.41569H6.41037H6.40504H6.3997H6.39434H6.38897H6.38359H6.37819H6.37278H6.36735H6.36191H6.35646H6.35099H6.3455H6.34H6.32709L6.32709 18.4998C5.63595 18.482 4.95208 18.354 4.30126 18.1207L4.29435 18.1182L4.29437 18.1181C3.75544 17.9159 3.26799 17.597 2.86696 17.1842C2.45249 16.784 2.13548 16.294 1.94045 15.7518C1.69958 15.105 1.56769 14.4227 1.55016 13.7327L1.54984 13.72H1.55V13.7141V13.7083V13.7025V13.6967V13.6909V13.6851V13.6794V13.6737V13.6679V13.6622V13.6566V13.6509V13.6452V13.6396V13.634V13.6284V13.6228V13.6172V13.6116V13.6061V13.6005V13.595V13.5895V13.584V13.5785V13.5731V13.5676V13.5622V13.5568V13.5514V13.546V13.5406V13.5352V13.5298V13.5245V13.5192V13.5139V13.5085V13.5032V13.498V13.4927V13.4874V13.4822V13.477V13.4717V13.4665V13.4613V13.4561V13.4509V13.4458V13.4406V13.4355V13.4303V13.4252V13.4201V13.415V13.4099V13.4048V13.3997V13.3946V13.3896V13.3845V13.3795V13.3745V13.3694V13.3644V13.3594V13.3544V13.3494V13.3444V13.3395V13.3345V13.3295V13.3246V13.3196V13.3147V13.3098V13.3049V13.3V13.295V13.2901V13.2852V13.2804V13.2755V13.2706V13.2657V13.2609V13.256V13.2512V13.2463V13.2415V13.2366V13.2318V13.227V13.2222V13.2174V13.2125V13.2077V13.2029V13.1981V13.1933V13.1886V13.1838V13.179V13.1742V13.1694V13.1647V13.1599V13.1551V13.1504V13.1456V13.1409V13.1361V13.1313V13.1266V13.1218V13.1171V13.1124V13.1076V13.1029V13.0981V13.0934V13.0887V13.0839V13.0792V13.0745V13.0697V13.065V13.0603V13.0555V13.0508V13.0461V13.0413V13.0366V13.0319V13.0272V13.0224V13.0177V13.013V13.0082V13.0035V12.9987V12.994V12.9893V12.9845V12.9798V12.975V12.9703V12.9655V12.9608V12.956V12.9513V12.9465V12.9418V12.937V12.9322V12.9275V12.9227V12.9179V12.9131V12.9083V12.9035V12.8987V12.8939V12.8891V12.8843V12.8795V12.8747V12.8699V12.8651V12.8602V12.8554V12.8506V12.8457V12.8409V12.836V12.8311V12.8263V12.8214V12.8165V12.8116V12.8067V12.8018V12.7969V12.792V12.7871V12.7822V12.7772V12.7723V12.7673V12.7624V12.7574V12.7524V12.7475V12.7425V12.7375V12.7325V12.7275V12.7224V12.7174V12.7124V12.7073V12.7023V12.6972V12.6921V12.687V12.6819V12.6768V12.6717V12.6666V12.6614V12.6563V12.6511V12.646V12.6408V12.6356V12.6304V12.6252V12.6199V12.6147V12.6095V12.6042V12.5989V12.5936V12.5883V12.583V12.5777V12.5724V12.567V12.5617V12.5563V12.5509V12.5455V12.5401V12.5347V12.5293V12.5238V12.5184V12.5129V12.5074V12.5019V12.4964V12.4908V12.4853V12.4797V12.4741V12.4685V12.4629V12.4573V12.4517V12.446V12.4403V12.4347V12.429V12.4232V12.4175V12.4117V12.406V12.4002V12.3944V12.3886V12.3827V12.3769V12.371V12.3651V12.3592V12.3533V12.3474V12.3414V12.3355V12.3295V12.3235V12.3174V12.3114V12.3053V12.2992V12.2931V12.287V12.2809V12.2747V12.2685V12.2623V12.2561V12.2499V12.2436V12.2373V12.231V12.2247V12.2184V12.212V12.2056V12.1992V12.1928V12.1864V12.1799V12.1734V12.1669V12.1604V12.1538V12.1473V12.1407V12.134V12.1274V12.1207V12.1141V12.1074V12.1006V12.0939V12.0871V12.0803V12.0735V12.0666V12.0598V12.0529V12.046V12.039V12.0321V12.0251V12.0181V12.011V12.004V11.9969V11.9898V11.9826V11.9755V11.9683V11.9611V11.9538V11.9466V11.9393V11.932V11.9246V11.9172V11.9099V11.9024V11.895V11.8875V11.88V11.8725V11.8649V11.8573V11.8497V11.8421V11.8344V11.8267V11.819V11.8113V11.8035V11.7957V11.7879V11.78V11.7721V11.7642V11.7563V11.7483V11.7403V11.7322V11.7242V11.7161V11.708V11.6998V11.6916V11.6834V11.6752V11.6669V11.6586V11.6503V11.6419V11.6335V11.6251V11.6166V11.6081V11.5996V11.591V11.5825V11.5738V11.5652V11.5565V11.5478V11.5391V11.5303V11.5215V11.5126V11.5037V11.4948V11.4859V11.4769V11.4679V11.4589V11.4498V11.4407V11.4316V11.4224V11.4132V11.4039V11.3946V11.3853V11.376V11.3666V11.3572V11.3477V11.3382V11.3287V11.3192V11.3096V11.2999V11.2903V11.2806V11.2708V11.261V11.2512V11.2414V11.2315V11.2216V11.2116V11.2016V11.1916V11.1815V11.1714V11.1613V11.1511V11.1409V11.1306V11.1203V11.11V11.0996V11.0892V11.0788V11.0683V11.0577V11.0472V11.0366V11.0259V11.0153V11.0045V10.9938V10.983V10.9721V10.9612V10.9503V10.9394V10.9284V10.9173V10.9062V10.8951V10.8839V10.8727V10.8615V10.8502V10.8389V10.8275V10.8161V10.8046V10.7931V10.7816V10.77V10.7584V10.7467V10.735V10.7233V10.7115V10.6996V10.6877V10.6758V10.6638V10.6518V10.6398V10.6277V10.6155V10.6034V10.5911V10.5788V10.5665V10.5542V10.5418V10.5293V10.5168V10.5043V10.4917V10.479V10.4664V10.4536V10.4409V10.428V10.4152V10.4023V10.3893V10.3763V10.3633V10.3502V10.337V10.3238V10.3106V10.2973V10.284V10.2706V10.2572V10.2437V10.2302V10.2166V10.203V10.1893V10.1756V10.1619V10.148V10.1342V10.1203V10.1063V10.0923V10.0783V10.0642V10.05V10.0358V10.0217V10.0077V9.99367V9.97971V9.9658V9.95193V9.93811V9.92434V9.91062V9.89694V9.88332V9.86974V9.8562V9.84272V9.82928V9.81589V9.80254V9.78924V9.77599V9.76278V9.74962V9.73651V9.72344V9.71042V9.69744V9.68451V9.67162V9.65878V9.64598V9.63323V9.62053V9.60787V9.59525V9.58268V9.57015V9.55767V9.54523V9.53283V9.52048V9.50817V9.49591V9.48369V9.47151V9.45937V9.44728V9.43524V9.42323V9.41127V9.39935V9.38747V9.37564V9.36384V9.35209V9.34038V9.32872V9.31709V9.30551V9.29397V9.28247V9.27101V9.25959V9.24821V9.23688V9.22558V9.21432V9.20311V9.19194V9.1808V9.16971V9.15866V9.14764V9.13667V9.12573V9.11484V9.10398V9.09317V9.08239V9.07165V9.06095V9.05029V9.03967V9.02908V9.01854V9.00803V8.99756V8.98713V8.97674V8.96638V8.95607V8.94578V8.93554V8.92534V8.91517V8.90504V8.89494V8.88488V8.87486V8.86488V8.85493V8.84502V8.83514V8.8253V8.8155V8.80573V8.79599V8.7863V8.77664V8.76701V8.75742V8.74786V8.73834V8.72885V8.7194V8.70998V8.7006V8.69125V8.68193V8.67265V8.6634V8.65419V8.64501V8.63586V8.62675V8.61767V8.60862V8.59961V8.59062V8.58168V8.57276V8.56388V8.55503V8.54621V8.53742V8.52867V8.51994V8.51125V8.50259V8.49396V8.48537V8.4768V8.46827V8.45976V8.45129V8.44285V8.43444V8.42606V8.41771V8.40939V8.4011V8.39284V8.38461V8.37641V8.36824V8.36009V8.35198V8.3439V8.33584V8.32782V8.31982V8.31186V8.30392V8.29601V8.28813V8.28027V8.27245V8.26465V8.25688V8.24914V8.24142V8.23374V8.22608V8.21845V8.21084V8.20326V8.19571V8.18819V8.18069V8.17322V8.16577V8.15835V8.15096V8.14359V8.13625V8.12894V8.12165V8.11438V8.10714V8.09993V8.09274V8.08558V8.07844V8.07132V8.06423V8.05717V8.05013V8.04311V8.03612V8.02915V8.02221V8.01529V8.00839V8.00151V7.99466V7.98784V7.98103V7.97425V7.96749V7.96076V7.95404V7.94735V7.94069V7.93404V7.92742V7.92081V7.91423V7.90767V7.90114V7.89462V7.88813V7.88166V7.8752V7.86877V7.86236V7.85597V7.84961V7.84326V7.83693V7.83062V7.82433V7.81807V7.81182V7.80559V7.79938V7.79319V7.78702V7.78087V7.77474V7.76863V7.76254V7.75646V7.75041V7.74437V7.73835V7.73235V7.72636V7.7204V7.71445V7.70852V7.70261V7.69672V7.69084V7.68498V7.67914V7.67331V7.6675V7.66171V7.65593V7.65017V7.64443V7.6387V7.63299V7.6273V7.62162V7.61595V7.61031V7.60467V7.59906V7.59346V7.58787V7.5823V7.57674V7.5712V7.56567V7.56016V7.55466V7.54917V7.5437V7.53825V7.5328V7.52738V7.52196V7.51656V7.51117V7.50579V7.50043V7.49508V7.48975V7.48442V7.47911V7.47381V7.46853V7.46325V7.45799V7.45274V7.4475V7.44227V7.43706V7.43185V7.42666V7.42148V7.41631V7.41115V7.406V7.40087V7.39574V7.39062V7.38552V7.38042V7.37533V7.37026V7.36519V7.36014V7.35509V7.35005V7.34502V7.34V7.33499V7.32999V7.325V7.32002V7.31504V7.31008V7.30512V7.30017V7.29523V7.29029V7.28537V7.28045V7.27554V7.27063V7.26574V7.26085V7.25597V7.25109V7.24622V7.24136V7.23651V7.23166V7.22682V7.22198V7.21715V7.21233V7.20751V7.2027V7.19789V7.19309V7.18829V7.1835V7.17872V7.17394V7.16916V7.16439V7.15962V7.15486V7.1501V7.14535V7.1406V7.13585V7.13111V7.12637V7.12164V7.11691V7.11218V7.10745V7.10273V7.09801V7.0933V7.08859V7.08387V7.07917V7.07446V7.06976V7.06506V7.06036V7.05566V7.05096V7.04627V7.04157V7.03688V7.03219V7.0275V7.02281V7.01813V7.01344V7.00875V7.00407V6.99938V6.99469V6.99001V6.98532V6.98064V6.97595V6.97126V6.96658V6.96189V6.9572V6.95251V6.94782V6.94313V6.93843V6.93374V6.92904V6.92435V6.91965V6.91494V6.91024V6.90553V6.90083V6.89612V6.8914V6.88669V6.88197V6.87725V6.87252V6.86779V6.86306V6.85833V6.85359V6.84885V6.8441V6.83935V6.8346V6.82984V6.82508V6.82031V6.81554V6.81076V6.80598V6.8012V6.79641V6.79161V6.78681V6.782V6.77719V6.77237V6.76755V6.76272V6.75788V6.75304V6.74819V6.74333V6.73847V6.7336V6.72873V6.72385V6.71896V6.71406V6.70916V6.70425V6.69933V6.6944V6.68947V6.68453V6.67958V6.67462V6.66965V6.66468V6.65969V6.6547V6.6497V6.64469V6.63967V6.63464V6.6296V6.62456V6.6195V6.61443V6.60936V6.60427V6.59917V6.59407V6.58895V6.58382V6.57868V6.57354V6.56838V6.56321V6.55802V6.55283V6.54763V6.54241V6.53719V6.53195V6.5267V6.52143V6.51616V6.51087V6.50557V6.50026V6.49494V6.4896V6.48425V6.47889V6.47351V6.46812V6.46272V6.4573V6.45188V6.44643V6.44098V6.4355V6.43002V6.42452V6.41901V6.41348V6.40794V6.40238V6.39681V6.39122V6.38562V6.38V6.36651L1.55018 6.36651C1.56889 5.67331 1.70084 4.98783 1.9408 4.33722C2.13837 3.79993 2.45476 3.31427 2.8663 2.91647C3.26637 2.50221 3.75629 2.18536 4.29826 1.99041C4.94198 1.751 5.62072 1.61933 6.30718 1.60067C7.25804 1.5 7.58915 1.5 9.96457 1.5H10L18.0606 15.6988ZM18.0606 15.6988C18.2379 15.2045 18.3545 14.6912 18.4081 14.17L18.0606 15.6988ZM13.66 1.5H13.6727L13.66 2V1.5ZM13.66 1.5H13.6545M13.66 1.5H13.6545M13.6545 1.5H13.649M13.6545 1.5H13.649M13.649 1.5H13.6435M13.649 1.5H13.6435M13.6435 1.5H13.6381M13.6435 1.5H13.6381M13.6381 1.5H13.6326M13.6381 1.5H13.6326M13.6326 1.5H13.6272M13.6326 1.5H13.6272M13.6272 1.5H13.6218M13.6272 1.5H13.6218M13.6218 1.5H13.6164M13.6218 1.5H13.6164M13.6164 1.5H13.611M13.6164 1.5H13.611M13.611 1.5H13.6056M13.611 1.5H13.6056M13.6056 1.5H13.6003M13.6056 1.5H13.6003M13.6003 1.5H13.5949M13.6003 1.5H13.5949M13.5949 1.5H13.5896M13.5949 1.5H13.5896M13.5896 1.5H13.5843M13.5896 1.5H13.5843M13.5843 1.5H13.579M13.5843 1.5H13.579M13.579 1.5H13.5737M13.579 1.5H13.5737M13.5737 1.5H13.5684M13.5737 1.5H13.5684M13.5684 1.5H13.5631M13.5684 1.5H13.5631M13.5631 1.5H13.5579M13.5631 1.5H13.5579M13.5579 1.5H13.5527M13.5579 1.5H13.5527M13.5527 1.5H13.5474M13.5527 1.5H13.5474M13.5474 1.5H13.5422M13.5474 1.5H13.5422M13.5422 1.5H13.537M13.5422 1.5H13.537M13.537 1.5H13.5318M13.537 1.5H13.5318M13.5318 1.5H13.5266M13.5318 1.5H13.5266M13.5266 1.5H13.5215M13.5266 1.5H13.5215M13.5215 1.5H13.5163M13.5215 1.5H13.5163M13.5163 1.5H13.5112M13.5163 1.5H13.5112M13.5112 1.5H13.506M13.5112 1.5H13.506M13.506 1.5H13.5009M13.506 1.5H13.5009M13.5009 1.5H13.4958M13.5009 1.5H13.4958M13.4958 1.5H13.4907M13.4958 1.5H13.4907M13.4907 1.5H13.4856M13.4907 1.5H13.4856M13.4856 1.5H13.4805M13.4856 1.5H13.4805M13.4805 1.5H13.4754M13.4805 1.5H13.4754M13.4754 1.5H13.4704M13.4754 1.5H13.4704M13.4704 1.5H13.4653M13.4704 1.5H13.4653M13.4653 1.5H13.4603M13.4653 1.5H13.4603M13.4603 1.5H13.4553M13.4603 1.5H13.4553M13.4553 1.5H13.4503M13.4553 1.5H13.4503M13.4503 1.5H13.4453M13.4503 1.5H13.4453M13.4453 1.5H13.4403M13.4453 1.5H13.4403M13.4403 1.5H13.4353M13.4403 1.5H13.4353M13.4353 1.5H13.4303M13.4353 1.5H13.4303M13.4303 1.5H13.4253M13.4303 1.5H13.4253M13.4253 1.5H13.4204M13.4253 1.5H13.4204M13.4204 1.5H13.4154M13.4204 1.5H13.4154M13.4154 1.5H13.4105M13.4154 1.5H13.4105M13.4105 1.5H13.4055M13.4105 1.5H13.4055M13.4055 1.5H13.4006M13.4055 1.5H13.4006M13.4006 1.5H13.3957M13.4006 1.5H13.3957M13.3957 1.5H13.3908M13.3957 1.5H13.3908M13.3908 1.5H13.3859M13.3908 1.5H13.3859M13.3859 1.5H13.381M13.3859 1.5H13.381M13.381 1.5H13.3761M13.381 1.5H13.3761M13.3761 1.5H13.3712M13.3761 1.5H13.3712M13.3712 1.5H13.3664M13.3712 1.5H13.3664M13.3664 1.5H13.3615M13.3664 1.5H13.3615M13.3615 1.5H13.3567M13.3615 1.5H13.3567M13.3567 1.5H13.3518M13.3567 1.5H13.3518M13.3518 1.5H13.347M13.3518 1.5H13.347M13.347 1.5H13.3422M13.347 1.5H13.3422M13.3422 1.5H13.3373M13.3422 1.5H13.3373M13.3373 1.5H13.3325M13.3373 1.5H13.3325M13.3325 1.5H13.3277M13.3325 1.5H13.3277M13.3277 1.5H13.3229M13.3277 1.5H13.3229M13.3229 1.5H13.3181M13.3229 1.5H13.3181M13.3181 1.5H13.3133M13.3181 1.5H13.3133M13.3133 1.5H13.3085M13.3133 1.5H13.3085M13.3085 1.5H13.3038M13.3085 1.5H13.3038M13.3038 1.5H13.299M13.3038 1.5H13.299M13.299 1.5H13.2942M13.299 1.5H13.2942M13.2942 1.5H13.2895M13.2942 1.5H13.2895M13.2895 1.5H13.2847M13.2895 1.5H13.2847M13.2847 1.5H13.28M13.2847 1.5H13.28M13.28 1.5H13.2752M13.28 1.5H13.2752M13.2752 1.5H13.2705M13.2752 1.5H13.2705M13.2705 1.5H13.2658M13.2705 1.5H13.2658M13.2658 1.5H13.2611M13.2658 1.5H13.2611M13.2611 1.5H13.2563M13.2611 1.5H13.2563M13.2563 1.5H13.2516M13.2563 1.5H13.2516M13.2516 1.5H13.2469M13.2516 1.5H13.2469M13.2469 1.5H13.2422H13.2469ZM19.4401 6.24969L19.4403 6.26013L19.4409 6.27056C19.4998 7.23256 19.5 7.53686 19.5 10C19.5 11.2253 19.4851 11.9104 19.4702 12.4127C19.467 12.5225 19.4637 12.6243 19.4606 12.7219C19.4494 13.0679 19.4401 13.3595 19.44 13.755C19.4241 14.5506 19.2727 15.3376 18.9926 16.0825C18.7385 16.7443 18.3481 17.3454 17.8467 17.8467C17.3454 18.3481 16.7443 18.7385 16.0825 18.9926C15.3362 19.2733 14.5475 19.4246 13.7503 19.4401L13.7397 19.4403L13.7291 19.441C12.7774 19.4998 12.4733 19.5 10 19.5C8.76967 19.5 8.08461 19.4851 7.58356 19.4702C7.47367 19.467 7.37177 19.4637 7.27424 19.4605C6.92996 19.4494 6.64005 19.4401 6.24505 19.44C5.44943 19.424 4.66234 19.2727 3.9175 18.9926C3.25565 18.7384 2.65457 18.3481 2.15325 17.8467C1.6519 17.3454 1.26151 16.7443 1.00738 16.0824C0.726692 15.3361 0.57536 14.5475 0.559906 13.7503L0.559704 13.7399L0.559065 13.7294C0.500167 12.7674 0.5 12.4631 0.5 10C0.5 7.53686 0.500167 7.23256 0.559065 6.27056L0.559704 6.26013L0.559906 6.24969C0.57536 5.45254 0.726695 4.66386 1.00739 3.91761C1.26151 3.25571 1.6519 2.6546 2.15325 2.15325C2.6546 1.6519 3.25571 1.26151 3.91761 1.00739C4.66386 0.726695 5.45254 0.57536 6.24969 0.559906L6.26029 0.559701L6.27087 0.559046C7.22264 0.500174 7.52668 0.5 10 0.5C12.4733 0.5 12.7774 0.500174 13.7291 0.559046L13.7397 0.559701L13.7503 0.559906C14.5475 0.57536 15.3361 0.726692 16.0824 1.00738C16.7443 1.26151 17.3454 1.6519 17.8467 2.15325C18.3481 2.65457 18.7384 3.25565 18.9926 3.9175C19.2733 4.66379 19.4246 5.4525 19.4401 6.24969ZM18 13.6717L17.94 13.67L18 13.6717ZM7.49993 6.25839C8.23995 5.76392 9.10998 5.5 10 5.5C11.1935 5.5 12.3381 5.97411 13.182 6.81802C14.0259 7.66193 14.5 8.80653 14.5 10C14.5 10.89 14.2361 11.76 13.7416 12.5001C13.2471 13.2401 12.5443 13.8169 11.7221 14.1575C10.8998 14.4981 9.99501 14.5872 9.12209 14.4135C8.24918 14.2399 7.44736 13.8113 6.81802 13.182C6.18868 12.5526 5.7601 11.7508 5.58647 10.8779C5.41283 10.005 5.50195 9.10019 5.84254 8.27792C6.18314 7.45566 6.75991 6.75285 7.49993 6.25839ZM8.0555 12.9101C8.63108 13.2947 9.30777 13.5 10 13.5C10.9283 13.5 11.8185 13.1313 12.4749 12.4749C13.1313 11.8185 13.5 10.9283 13.5 10C13.5 9.30777 13.2947 8.63108 12.9101 8.0555C12.5256 7.47993 11.9789 7.03133 11.3394 6.76642C10.6999 6.50151 9.99612 6.4322 9.31718 6.56725C8.63825 6.7023 8.01461 7.03564 7.52513 7.52513C7.03564 8.01461 6.7023 8.63825 6.56725 9.31718C6.4322 9.99612 6.50151 10.6999 6.76642 11.3394C7.03133 11.9789 7.47993 12.5256 8.0555 12.9101ZM14.7222 4.58427C14.8044 4.52932 14.9011 4.5 15 4.5C15.1326 4.5 15.2598 4.55268 15.3536 4.64645C15.4473 4.74021 15.5 4.86739 15.5 5C15.5 5.09889 15.4707 5.19556 15.4157 5.27778C15.3608 5.36001 15.2827 5.4241 15.1913 5.46194C15.1 5.49978 14.9994 5.50969 14.9025 5.49039C14.8055 5.4711 14.7164 5.42348 14.6464 5.35355C14.5765 5.28363 14.5289 5.19454 14.5096 5.09755C14.4903 5.00055 14.5002 4.90002 14.5381 4.80866C14.5759 4.7173 14.64 4.63921 14.7222 4.58427Z" stroke="#D26D81"/>
</svg>
